%TF.GenerationSoftware,KiCad,Pcbnew,8.0.5*%
%TF.CreationDate,2025-04-06T18:14:10+03:00*%
%TF.ProjectId,roboforce,726f626f-666f-4726-9365-2e6b69636164,rev?*%
%TF.SameCoordinates,Original*%
%TF.FileFunction,Copper,L1,Top*%
%TF.FilePolarity,Positive*%
%FSLAX46Y46*%
G04 Gerber Fmt 4.6, Leading zero omitted, Abs format (unit mm)*
G04 Created by KiCad (PCBNEW 8.0.5) date 2025-04-06 18:14:10*
%MOMM*%
%LPD*%
G01*
G04 APERTURE LIST*
%TA.AperFunction,ComponentPad*%
%ADD10O,1.800000X1.800000*%
%TD*%
%TA.AperFunction,ComponentPad*%
%ADD11R,1.800000X1.800000*%
%TD*%
%TA.AperFunction,HeatsinkPad*%
%ADD12C,0.600000*%
%TD*%
%TA.AperFunction,SMDPad,CuDef*%
%ADD13R,3.900000X3.900000*%
%TD*%
%TA.AperFunction,SMDPad,CuDef*%
%ADD14R,1.500000X0.900000*%
%TD*%
%TA.AperFunction,SMDPad,CuDef*%
%ADD15R,0.900000X1.500000*%
%TD*%
%TA.AperFunction,ComponentPad*%
%ADD16R,1.905000X2.000000*%
%TD*%
%TA.AperFunction,ComponentPad*%
%ADD17O,1.905000X2.000000*%
%TD*%
%TA.AperFunction,Conductor*%
%ADD18C,0.200000*%
%TD*%
G04 APERTURE END LIST*
D10*
%TO.P,U2,15,SENSE_B*%
%TO.N,+12V*%
X133490000Y-105080000D03*
%TO.P,U2,14,OUT4*%
%TO.N,Net-(M1--)*%
X132220000Y-100000000D03*
%TO.P,U2,13,OUT3*%
%TO.N,Net-(M1-+)*%
X130950000Y-105080000D03*
%TO.P,U2,12,IN4*%
%TO.N,Net-(U1-IO20)*%
X129680000Y-100000000D03*
%TO.P,U2,11,EnB*%
%TO.N,unconnected-(U2-EnB-Pad11)*%
X128410000Y-105080000D03*
%TO.P,U2,10,IN3*%
%TO.N,Net-(U1-IO19)*%
X127140000Y-100000000D03*
%TO.P,U2,9,Vss*%
%TO.N,unconnected-(U2-Vss-Pad9)*%
X125870000Y-105080000D03*
%TO.P,U2,8,GND*%
%TO.N,GND*%
X124600000Y-100000000D03*
%TO.P,U2,7,IN2*%
%TO.N,Net-(U1-IO12)*%
X123330000Y-105080000D03*
%TO.P,U2,6,EnA*%
%TO.N,unconnected-(U2-EnA-Pad6)*%
X122060000Y-100000000D03*
%TO.P,U2,5,IN1*%
%TO.N,Net-(U1-IO12)*%
X120790000Y-105080000D03*
%TO.P,U2,4,Vs*%
%TO.N,unconnected-(U2-Vs-Pad4)*%
X119520000Y-100000000D03*
%TO.P,U2,3,OUT2*%
%TO.N,Net-(M2--)*%
X118250000Y-105080000D03*
%TO.P,U2,2,OUT1*%
%TO.N,Net-(M2-+)*%
X116980000Y-100000000D03*
D11*
%TO.P,U2,1,SENSE_A*%
%TO.N,Net-(-1-VA)*%
X115710000Y-105080000D03*
%TD*%
D12*
%TO.P,U1,41,GND*%
%TO.N,Net-(-1-GND)*%
X137000000Y-74000000D03*
X137000000Y-72600000D03*
X136300000Y-74700000D03*
X136300000Y-73300000D03*
X136300000Y-71900000D03*
X135600000Y-74000000D03*
D13*
X135600000Y-73300000D03*
D12*
X135600000Y-72600000D03*
X134900000Y-74700000D03*
X134900000Y-73300000D03*
X134900000Y-71900000D03*
X134200000Y-74000000D03*
X134200000Y-72600000D03*
D14*
%TO.P,U1,40,GND*%
X145850000Y-65580000D03*
%TO.P,U1,39,IO1*%
%TO.N,unconnected-(U1-IO1-Pad39)*%
X145850000Y-66850000D03*
%TO.P,U1,38,IO2*%
%TO.N,unconnected-(U1-IO2-Pad38)*%
X145850000Y-68120000D03*
%TO.P,U1,37,TXD0*%
%TO.N,unconnected-(U1-TXD0-Pad37)*%
X145850000Y-69390000D03*
%TO.P,U1,36,RXD0*%
%TO.N,unconnected-(U1-RXD0-Pad36)*%
X145850000Y-70660000D03*
%TO.P,U1,35,IO42*%
%TO.N,unconnected-(U1-IO42-Pad35)*%
X145850000Y-71930000D03*
%TO.P,U1,34,IO41*%
%TO.N,unconnected-(U1-IO41-Pad34)*%
X145850000Y-73200000D03*
%TO.P,U1,33,IO40*%
%TO.N,unconnected-(U1-IO40-Pad33)*%
X145850000Y-74470000D03*
%TO.P,U1,32,IO39*%
%TO.N,unconnected-(U1-IO39-Pad32)*%
X145850000Y-75740000D03*
%TO.P,U1,31,IO38*%
%TO.N,unconnected-(U1-IO38-Pad31)*%
X145850000Y-77010000D03*
%TO.P,U1,30,IO37*%
%TO.N,unconnected-(U1-IO37-Pad30)*%
X145850000Y-78280000D03*
%TO.P,U1,29,IO36*%
%TO.N,unconnected-(U1-IO36-Pad29)*%
X145850000Y-79550000D03*
%TO.P,U1,28,IO35*%
%TO.N,unconnected-(U1-IO35-Pad28)*%
X145850000Y-80820000D03*
%TO.P,U1,27,IO0*%
%TO.N,unconnected-(U1-IO0-Pad27)*%
X145850000Y-82090000D03*
D15*
%TO.P,U1,26,IO45*%
%TO.N,unconnected-(U1-IO45-Pad26)*%
X144085000Y-83340000D03*
%TO.P,U1,25,IO48*%
%TO.N,Net-(-1-VB)*%
X142815000Y-83340000D03*
%TO.P,U1,24,IO47*%
%TO.N,unconnected-(U1-IO47-Pad24)*%
X141545000Y-83340000D03*
%TO.P,U1,23,IO21*%
%TO.N,Net-(U1-IO12)*%
X140275000Y-83340000D03*
%TO.P,U1,22,IO14*%
%TO.N,unconnected-(U1-IO14-Pad22)*%
X139005000Y-83340000D03*
%TO.P,U1,21,IO13*%
%TO.N,unconnected-(U1-IO13-Pad21)*%
X137735000Y-83340000D03*
%TO.P,U1,20,IO12*%
%TO.N,Net-(U1-IO12)*%
X136465000Y-83340000D03*
%TO.P,U1,19,IO11*%
%TO.N,unconnected-(U1-IO11-Pad19)*%
X135195000Y-83340000D03*
%TO.P,U1,18,IO10*%
%TO.N,unconnected-(U1-IO10-Pad18)*%
X133925000Y-83340000D03*
%TO.P,U1,17,IO9*%
%TO.N,unconnected-(U1-IO9-Pad17)*%
X132655000Y-83340000D03*
%TO.P,U1,16,IO46*%
%TO.N,unconnected-(U1-IO46-Pad16)*%
X131385000Y-83340000D03*
%TO.P,U1,15,IO3*%
%TO.N,unconnected-(U1-IO3-Pad15)*%
X130115000Y-83340000D03*
D14*
%TO.P,U1,14,IO20*%
%TO.N,Net-(U1-IO20)*%
X128350000Y-82090000D03*
%TO.P,U1,13,IO19*%
%TO.N,Net-(U1-IO19)*%
X128350000Y-80820000D03*
%TO.P,U1,12,IO8*%
%TO.N,unconnected-(U1-IO8-Pad12)*%
X128350000Y-79550000D03*
%TO.P,U1,11,IO18*%
%TO.N,unconnected-(U1-IO18-Pad11)*%
X128350000Y-78280000D03*
%TO.P,U1,10,IO17*%
%TO.N,unconnected-(U1-IO17-Pad10)*%
X128350000Y-77010000D03*
%TO.P,U1,9,IO16*%
%TO.N,unconnected-(U1-IO16-Pad9)*%
X128350000Y-75740000D03*
%TO.P,U1,8,IO15*%
%TO.N,unconnected-(U1-IO15-Pad8)*%
X128350000Y-74470000D03*
%TO.P,U1,7,IO7*%
%TO.N,unconnected-(U1-IO7-Pad7)*%
X128350000Y-73200000D03*
%TO.P,U1,6,IO6*%
%TO.N,unconnected-(U1-IO6-Pad6)*%
X128350000Y-71930000D03*
%TO.P,U1,5,IO5*%
%TO.N,unconnected-(U1-IO5-Pad5)*%
X128350000Y-70660000D03*
%TO.P,U1,4,IO4*%
%TO.N,unconnected-(U1-IO4-Pad4)*%
X128350000Y-69390000D03*
%TO.P,U1,3,EN*%
%TO.N,unconnected-(U1-EN-Pad3)*%
X128350000Y-68120000D03*
%TO.P,U1,2,3V3*%
%TO.N,Net-(-1-VA)*%
X128350000Y-66850000D03*
%TO.P,U1,1,GND*%
%TO.N,Net-(-1-GND)*%
X128350000Y-65580000D03*
%TD*%
D16*
%TO.P,-1,1,VA*%
%TO.N,Net-(-1-VA)*%
X156080000Y-97000000D03*
D17*
%TO.P,-1,2,VB*%
%TO.N,Net-(-1-VB)*%
X153540000Y-97000000D03*
%TO.P,-1,3,GND*%
%TO.N,Net-(-1-GND)*%
X151000000Y-97000000D03*
%TD*%
D18*
%TO.N,Net-(-1-GND)*%
X144020000Y-65580000D02*
X137000000Y-72600000D01*
X145850000Y-65580000D02*
X144020000Y-65580000D01*
X129004264Y-65580000D02*
X128350000Y-65580000D01*
X134900000Y-71475736D02*
X129004264Y-65580000D01*
X134900000Y-71900000D02*
X134900000Y-71475736D01*
%TO.N,Net-(U1-IO19)*%
X127400000Y-80820000D02*
X128350000Y-80820000D01*
X125000000Y-83220000D02*
X127400000Y-80820000D01*
X125000000Y-97860000D02*
X125000000Y-83220000D01*
X127140000Y-100000000D02*
X125000000Y-97860000D01*
%TO.N,Net-(U1-IO20)*%
X128350000Y-98670000D02*
X128350000Y-82090000D01*
X129680000Y-100000000D02*
X128350000Y-98670000D01*
%TO.N,Net-(-1-GND)*%
X151000000Y-69780000D02*
X146800000Y-65580000D01*
X151000000Y-97000000D02*
X151000000Y-69780000D01*
X146800000Y-65580000D02*
X145850000Y-65580000D01*
%TO.N,Net-(-1-VB)*%
X142815000Y-95815000D02*
X142815000Y-83340000D01*
X149000000Y-102000000D02*
X142815000Y-95815000D01*
X150000000Y-102000000D02*
X149000000Y-102000000D01*
X153540000Y-98460000D02*
X150000000Y-102000000D01*
X153540000Y-97000000D02*
X153540000Y-98460000D01*
%TO.N,Net-(-1-VA)*%
X119000000Y-112000000D02*
X115710000Y-108710000D01*
X143000000Y-112000000D02*
X119000000Y-112000000D01*
X156080000Y-98920000D02*
X143000000Y-112000000D01*
X156080000Y-97000000D02*
X156080000Y-98920000D01*
X115710000Y-108710000D02*
X115710000Y-105080000D01*
%TO.N,Net-(-1-GND)*%
X135600000Y-71880000D02*
X135600000Y-73300000D01*
%TO.N,Net-(U1-IO12)*%
X120790000Y-105080000D02*
X123330000Y-105080000D01*
X140275000Y-106725000D02*
X140275000Y-83340000D01*
X139000000Y-108000000D02*
X140275000Y-106725000D01*
X126250000Y-108000000D02*
X139000000Y-108000000D01*
X123330000Y-105080000D02*
X126250000Y-108000000D01*
%TO.N,Net-(-1-VA)*%
X115710000Y-78540000D02*
X127400000Y-66850000D01*
X115710000Y-105080000D02*
X115710000Y-78540000D01*
X127400000Y-66850000D02*
X128350000Y-66850000D01*
%TD*%
M02*
