M48
; DRILL file {KiCad 8.0.5} date 2025-04-06T18:14:07+0300
; FORMAT={-:-/ absolute / inch / decimal}
; #@! TF.CreationDate,2025-04-06T18:14:07+03:00
; #@! TF.GenerationSoftware,Kicad,Pcbnew,8.0.5
; #@! TF.FileFunction,Plated,1,2,PTH
FMAT,2
INCH
; #@! TA.AperFunction,Plated,PTH,ComponentDrill
T1C0.0079
; #@! TA.AperFunction,Plated,PTH,ComponentDrill
T2C0.0394
; #@! TA.AperFunction,Plated,PTH,ComponentDrill
T3C0.0433
%
G90
G05
T1
X5.2835Y-2.8583
X5.2835Y-2.9134
X5.311Y-2.8307
X5.311Y-2.8858
X5.311Y-2.9409
X5.3386Y-2.8583
X5.3386Y-2.9134
X5.3661Y-2.8307
X5.3661Y-2.8858
X5.3661Y-2.9409
X5.3937Y-2.8583
X5.3937Y-2.9134
T2
X4.5555Y-4.137
X4.6055Y-3.937
X4.6555Y-4.137
X4.7055Y-3.937
X4.7555Y-4.137
X4.8055Y-3.937
X4.8555Y-4.137
X4.9055Y-3.937
X4.9555Y-4.137
X5.0055Y-3.937
X5.0555Y-4.137
X5.1055Y-3.937
X5.1555Y-4.137
X5.2055Y-3.937
X5.2555Y-4.137
T3
X5.9449Y-3.8189
X6.0449Y-3.8189
X6.1449Y-3.8189
M30
